<svg width="102" height="29" viewBox="0 0 102 29" fill="none" xmlns="http://www.w3.org/2000/svg">
<path d="M12.4162 18.7459C11.1594 19.1414 9.82459 19.2208 8.52984 18.9772C7.23509 18.7335 6.02041 18.1744 4.99339 17.3491C3.96638 16.5239 3.15872 15.4582 2.64198 14.2463C2.12524 13.0344 1.91535 11.7137 2.03091 10.4013C2.14647 9.08895 2.58391 7.82531 3.30449 6.72236C4.02507 5.61941 5.00653 4.71119 6.16195 4.07815C7.31738 3.44511 8.61109 3.10679 9.92849 3.09316C11.2459 3.07952 12.5463 3.391 13.7146 4" stroke="white" stroke-width="4"/>
<path d="M7.28435 10.318C8.55737 9.97862 9.89444 9.95848 11.1771 10.2593C12.4598 10.5601 13.6485 11.1727 14.6379 12.0426C15.6273 12.9126 16.3868 14.0131 16.8493 15.2467C17.3118 16.4804 17.4629 17.809 17.2892 19.115C17.1156 20.421 16.6225 21.6639 15.8537 22.7338C15.0849 23.8038 14.0642 24.6675 12.8818 25.2487C11.6994 25.8299 10.392 26.1105 9.07527 26.0657C7.75855 26.0208 6.47321 25.652 5.3331 24.9918" stroke="white" stroke-width="4"/>
<path d="M31.2125 20H27.2693V8.36364H31.292C32.4473 8.36364 33.4398 8.59659 34.2693 9.0625C35.1026 9.52462 35.7428 10.1894 36.1898 11.0568C36.6367 11.9242 36.8602 12.9621 36.8602 14.1705C36.8602 15.3826 36.6348 16.4242 36.1841 17.2955C35.7371 18.1667 35.0913 18.8352 34.2466 19.3011C33.4057 19.767 32.3943 20 31.2125 20ZM29.3773 18.1761H31.1102C31.9208 18.1761 32.597 18.0284 33.1386 17.733C33.6803 17.4337 34.0875 16.9886 34.3602 16.3977C34.6329 15.803 34.7693 15.0606 34.7693 14.1705C34.7693 13.2803 34.6329 12.5417 34.3602 11.9545C34.0875 11.3636 33.6841 10.9223 33.15 10.6307C32.6197 10.3352 31.9606 10.1875 31.1727 10.1875H29.3773V18.1761ZM41.2835 20.1761C40.7305 20.1761 40.2324 20.0777 39.7892 19.8807C39.3498 19.6799 39.0013 19.3845 38.7437 18.9943C38.49 18.6042 38.3631 18.1231 38.3631 17.5511C38.3631 17.0587 38.454 16.6515 38.6358 16.3295C38.8176 16.0076 39.0657 15.75 39.3801 15.5568C39.6945 15.3636 40.0487 15.2178 40.4426 15.1193C40.8403 15.017 41.2513 14.9432 41.6756 14.8977C42.1869 14.8447 42.6017 14.7973 42.9199 14.7557C43.2381 14.7102 43.4691 14.642 43.6131 14.5511C43.7608 14.4564 43.8347 14.3106 43.8347 14.1136V14.0795C43.8347 13.6515 43.7078 13.3201 43.454 13.0852C43.2002 12.8504 42.8347 12.733 42.3574 12.733C41.8536 12.733 41.454 12.8428 41.1585 13.0625C40.8668 13.2822 40.6699 13.5417 40.5676 13.8409L38.6472 13.5682C38.7987 13.0379 39.0487 12.5947 39.3972 12.2386C39.7456 11.8788 40.1718 11.6098 40.6756 11.4318C41.1793 11.25 41.7362 11.1591 42.346 11.1591C42.7665 11.1591 43.185 11.2083 43.6017 11.3068C44.0184 11.4053 44.399 11.5682 44.7437 11.7955C45.0884 12.0189 45.365 12.3239 45.5733 12.7102C45.7854 13.0966 45.8915 13.5795 45.8915 14.1591V20H43.9142V18.8011H43.846C43.721 19.0436 43.5449 19.2708 43.3176 19.483C43.0941 19.6913 42.8119 19.8598 42.471 19.9886C42.1339 20.1136 41.7381 20.1761 41.2835 20.1761ZM41.8176 18.6648C42.2305 18.6648 42.5884 18.5833 42.8915 18.4205C43.1945 18.2538 43.4275 18.0341 43.5903 17.7614C43.757 17.4886 43.8403 17.1913 43.8403 16.8693V15.8409C43.7759 15.8939 43.6661 15.9432 43.5108 15.9886C43.3593 16.0341 43.1888 16.0739 42.9994 16.108C42.81 16.142 42.6225 16.1723 42.4369 16.1989C42.2513 16.2254 42.0903 16.2481 41.954 16.267C41.6472 16.3087 41.3725 16.3769 41.1301 16.4716C40.8877 16.5663 40.6964 16.6989 40.5562 16.8693C40.4161 17.036 40.346 17.2519 40.346 17.517C40.346 17.8958 40.4843 18.1818 40.7608 18.375C41.0373 18.5682 41.3896 18.6648 41.8176 18.6648ZM52.3176 11.2727V12.8636H47.3006V11.2727H52.3176ZM48.5392 9.18182H50.596V17.375C50.596 17.6515 50.6377 17.8636 50.721 18.0114C50.8081 18.1553 50.9218 18.2538 51.0619 18.3068C51.2021 18.3598 51.3574 18.3864 51.5278 18.3864C51.6566 18.3864 51.774 18.3769 51.8801 18.358C51.99 18.339 52.0733 18.322 52.1301 18.3068L52.4767 19.9148C52.3668 19.9527 52.2097 19.9943 52.0051 20.0398C51.8043 20.0852 51.5581 20.1117 51.2665 20.1193C50.7513 20.1345 50.2873 20.0568 49.8744 19.8864C49.4615 19.7121 49.1339 19.4432 48.8915 19.0795C48.6528 18.7159 48.5354 18.2614 48.5392 17.7159V9.18182ZM56.5491 20.1761C55.9961 20.1761 55.498 20.0777 55.0548 19.8807C54.6154 19.6799 54.2669 19.3845 54.0094 18.9943C53.7556 18.6042 53.6287 18.1231 53.6287 17.5511C53.6287 17.0587 53.7196 16.6515 53.9014 16.3295C54.0832 16.0076 54.3313 15.75 54.6457 15.5568C54.9601 15.3636 55.3143 15.2178 55.7082 15.1193C56.106 15.017 56.5169 14.9432 56.9412 14.8977C57.4525 14.8447 57.8673 14.7973 58.1855 14.7557C58.5037 14.7102 58.7347 14.642 58.8787 14.5511C59.0264 14.4564 59.1003 14.3106 59.1003 14.1136V14.0795C59.1003 13.6515 58.9734 13.3201 58.7196 13.0852C58.4658 12.8504 58.1003 12.733 57.623 12.733C57.1192 12.733 56.7196 12.8428 56.4241 13.0625C56.1325 13.2822 55.9355 13.5417 55.8332 13.8409L53.9128 13.5682C54.0643 13.0379 54.3143 12.5947 54.6628 12.2386C55.0113 11.8788 55.4374 11.6098 55.9412 11.4318C56.445 11.25 57.0018 11.1591 57.6116 11.1591C58.0321 11.1591 58.4507 11.2083 58.8673 11.3068C59.284 11.4053 59.6647 11.5682 60.0094 11.7955C60.3541 12.0189 60.6306 12.3239 60.8389 12.7102C61.051 13.0966 61.1571 13.5795 61.1571 14.1591V20H59.1798V18.8011H59.1116C58.9866 19.0436 58.8105 19.2708 58.5832 19.483C58.3597 19.6913 58.0775 19.8598 57.7366 19.9886C57.3995 20.1136 57.0037 20.1761 56.5491 20.1761ZM57.0832 18.6648C57.4961 18.6648 57.8541 18.5833 58.1571 18.4205C58.4601 18.2538 58.6931 18.0341 58.856 17.7614C59.0226 17.4886 59.106 17.1913 59.106 16.8693V15.8409C59.0416 15.8939 58.9317 15.9432 58.7764 15.9886C58.6249 16.0341 58.4544 16.0739 58.265 16.108C58.0757 16.142 57.8882 16.1723 57.7025 16.1989C57.5169 16.2254 57.356 16.2481 57.2196 16.267C56.9128 16.3087 56.6382 16.3769 56.3957 16.4716C56.1533 16.5663 55.962 16.6989 55.8219 16.8693C55.6817 17.036 55.6116 17.2519 55.6116 17.517C55.6116 17.8958 55.7499 18.1818 56.0264 18.375C56.3029 18.5682 56.6552 18.6648 57.0832 18.6648ZM63.3162 20V8.36364H65.4241V18.233H70.5491V20H63.3162ZM76.0946 20.1705C75.2423 20.1705 74.5037 19.983 73.8787 19.608C73.2537 19.233 72.7688 18.7083 72.4241 18.0341C72.0832 17.3598 71.9128 16.572 71.9128 15.6705C71.9128 14.7689 72.0832 13.9792 72.4241 13.3011C72.7688 12.6231 73.2537 12.0966 73.8787 11.7216C74.5037 11.3466 75.2423 11.1591 76.0946 11.1591C76.9469 11.1591 77.6855 11.3466 78.3105 11.7216C78.9355 12.0966 79.4185 12.6231 79.7594 13.3011C80.1041 13.9792 80.2764 14.7689 80.2764 15.6705C80.2764 16.572 80.1041 17.3598 79.7594 18.0341C79.4185 18.7083 78.9355 19.233 78.3105 19.608C77.6855 19.983 76.9469 20.1705 76.0946 20.1705ZM76.106 18.5227C76.5681 18.5227 76.9544 18.3958 77.265 18.142C77.5757 17.8845 77.8067 17.5398 77.9582 17.108C78.1135 16.6761 78.1912 16.1951 78.1912 15.6648C78.1912 15.1307 78.1135 14.6477 77.9582 14.2159C77.8067 13.7803 77.5757 13.4337 77.265 13.1761C76.9544 12.9186 76.5681 12.7898 76.106 12.7898C75.6325 12.7898 75.2385 12.9186 74.9241 13.1761C74.6135 13.4337 74.3806 13.7803 74.2253 14.2159C74.0738 14.6477 73.998 15.1307 73.998 15.6648C73.998 16.1951 74.0738 16.6761 74.2253 17.108C74.3806 17.5398 74.6135 17.8845 74.9241 18.142C75.2385 18.3958 75.6325 18.5227 76.106 18.5227ZM85.829 20.1705C84.9767 20.1705 84.2381 19.983 83.6131 19.608C82.9881 19.233 82.5032 18.7083 82.1585 18.0341C81.8176 17.3598 81.6472 16.572 81.6472 15.6705C81.6472 14.7689 81.8176 13.9792 82.1585 13.3011C82.5032 12.6231 82.9881 12.0966 83.6131 11.7216C84.2381 11.3466 84.9767 11.1591 85.829 11.1591C86.6812 11.1591 87.4199 11.3466 88.0449 11.7216C88.6699 12.0966 89.1528 12.6231 89.4937 13.3011C89.8384 13.9792 90.0108 14.7689 90.0108 15.6705C90.0108 16.572 89.8384 17.3598 89.4937 18.0341C89.1528 18.7083 88.6699 19.233 88.0449 19.608C87.4199 19.983 86.6812 20.1705 85.829 20.1705ZM85.8403 18.5227C86.3025 18.5227 86.6888 18.3958 86.9994 18.142C87.31 17.8845 87.5411 17.5398 87.6926 17.108C87.8479 16.6761 87.9256 16.1951 87.9256 15.6648C87.9256 15.1307 87.8479 14.6477 87.6926 14.2159C87.5411 13.7803 87.31 13.4337 86.9994 13.1761C86.6888 12.9186 86.3025 12.7898 85.8403 12.7898C85.3668 12.7898 84.9729 12.9186 84.6585 13.1761C84.3479 13.4337 84.115 13.7803 83.9597 14.2159C83.8081 14.6477 83.7324 15.1307 83.7324 15.6648C83.7324 16.1951 83.8081 16.6761 83.9597 17.108C84.115 17.5398 84.3479 17.8845 84.6585 18.142C84.9729 18.3958 85.3668 18.5227 85.8403 18.5227ZM91.7565 23.2727V11.2727H93.7793V12.7159H93.8986C94.0046 12.5038 94.1543 12.2784 94.3474 12.0398C94.5406 11.7973 94.802 11.5909 95.1315 11.4205C95.4611 11.2462 95.8815 11.1591 96.3929 11.1591C97.0671 11.1591 97.6751 11.3314 98.2168 11.6761C98.7622 12.017 99.194 12.5227 99.5122 13.1932C99.8342 13.8598 99.9952 14.678 99.9952 15.6477C99.9952 16.6061 99.838 17.4205 99.5236 18.0909C99.2092 18.7614 98.7811 19.2727 98.2395 19.625C97.6978 19.9773 97.0842 20.1534 96.3986 20.1534C95.8986 20.1534 95.4838 20.0701 95.1543 19.9034C94.8247 19.7367 94.5596 19.536 94.3588 19.3011C94.1618 19.0625 94.0084 18.8371 93.8986 18.625H93.8133V23.2727H91.7565ZM93.7736 15.6364C93.7736 16.2008 93.8531 16.6951 94.0122 17.1193C94.1751 17.5436 94.408 17.875 94.7111 18.1136C95.0179 18.3485 95.3891 18.4659 95.8247 18.4659C96.2793 18.4659 96.6599 18.3447 96.9668 18.1023C97.2736 17.8561 97.5046 17.5208 97.6599 17.0966C97.819 16.6686 97.8986 16.1818 97.8986 15.6364C97.8986 15.0947 97.8209 14.6136 97.6656 14.1932C97.5103 13.7727 97.2793 13.4432 96.9724 13.2045C96.6656 12.9659 96.283 12.8466 95.8247 12.8466C95.3853 12.8466 95.0122 12.9621 94.7054 13.1932C94.3986 13.4242 94.1656 13.7481 94.0065 14.1648C93.8512 14.5814 93.7736 15.072 93.7736 15.6364Z" fill="white"/>
</svg>
