<svg width="113" height="24" viewBox="0 0 113 24" fill="none" xmlns="http://www.w3.org/2000/svg">
<ellipse cx="8.48275" cy="12" rx="8.48275" ry="3.93103" fill="white"/>
<ellipse cx="16.9655" cy="12" rx="7.03448" ry="3.93103" fill="white"/>
<path d="M43.1081 9.78977H40.9831C40.9225 9.44129 40.8107 9.13258 40.6479 8.86364C40.485 8.59091 40.2823 8.35985 40.0399 8.17045C39.7975 7.98106 39.521 7.83901 39.2103 7.74432C38.9035 7.64583 38.5721 7.59659 38.216 7.59659C37.5835 7.59659 37.0228 7.75568 36.5342 8.07386C36.0456 8.38826 35.663 8.85038 35.3865 9.46023C35.11 10.0663 34.9717 10.8068 34.9717 11.6818C34.9717 12.572 35.11 13.322 35.3865 13.9318C35.6668 14.5379 36.0494 14.9962 36.5342 15.3068C37.0228 15.6136 37.5816 15.767 38.2103 15.767C38.5588 15.767 38.8846 15.7216 39.1876 15.6307C39.4944 15.536 39.7691 15.3977 40.0115 15.2159C40.2577 15.0341 40.4641 14.8106 40.6308 14.5455C40.8013 14.2803 40.9187 13.9773 40.9831 13.6364L43.1081 13.6477C43.0285 14.2008 42.8562 14.7197 42.591 15.2045C42.3297 15.6894 41.9869 16.1174 41.5626 16.4886C41.1384 16.8561 40.6422 17.1439 40.074 17.3523C39.5058 17.5568 38.8751 17.6591 38.1819 17.6591C37.1592 17.6591 36.2463 17.4223 35.4433 16.9489C34.6403 16.4754 34.0077 15.7917 33.5456 14.8977C33.0835 14.0038 32.8524 12.9318 32.8524 11.6818C32.8524 10.428 33.0853 9.35606 33.5513 8.46591C34.0172 7.57197 34.6516 6.88826 35.4547 6.41477C36.2577 5.94129 37.1668 5.70455 38.1819 5.70455C38.8297 5.70455 39.4319 5.79545 39.9888 5.97727C40.5456 6.15909 41.0418 6.42614 41.4774 6.77841C41.913 7.12689 42.271 7.55492 42.5513 8.0625C42.8353 8.56629 43.021 9.14205 43.1081 9.78977ZM47.0044 5.86364V17.5H44.9476V5.86364H47.0044ZM52.9263 17.6705C52.074 17.6705 51.3353 17.483 50.7103 17.108C50.0853 16.733 49.6005 16.2083 49.2558 15.5341C48.9149 14.8598 48.7444 14.072 48.7444 13.1705C48.7444 12.2689 48.9149 11.4792 49.2558 10.8011C49.6005 10.1231 50.0853 9.59659 50.7103 9.22159C51.3353 8.84659 52.074 8.65909 52.9263 8.65909C53.7785 8.65909 54.5172 8.84659 55.1422 9.22159C55.7672 9.59659 56.2501 10.1231 56.591 10.8011C56.9357 11.4792 57.1081 12.2689 57.1081 13.1705C57.1081 14.072 56.9357 14.8598 56.591 15.5341C56.2501 16.2083 55.7672 16.733 55.1422 17.108C54.5172 17.483 53.7785 17.6705 52.9263 17.6705ZM52.9376 16.0227C53.3997 16.0227 53.7861 15.8958 54.0967 15.642C54.4073 15.3845 54.6384 15.0398 54.7899 14.608C54.9452 14.1761 55.0228 13.6951 55.0228 13.1648C55.0228 12.6307 54.9452 12.1477 54.7899 11.7159C54.6384 11.2803 54.4073 10.9337 54.0967 10.6761C53.7861 10.4186 53.3997 10.2898 52.9376 10.2898C52.4641 10.2898 52.0702 10.4186 51.7558 10.6761C51.4452 10.9337 51.2122 11.2803 51.0569 11.7159C50.9054 12.1477 50.8297 12.6307 50.8297 13.1648C50.8297 13.6951 50.9054 14.1761 51.0569 14.608C51.2122 15.0398 51.4452 15.3845 51.7558 15.642C52.0702 15.8958 52.4641 16.0227 52.9376 16.0227ZM64.4163 13.8295V8.77273H66.4731V17.5H64.4788V15.9489H64.3879C64.1909 16.4375 63.8671 16.8371 63.4163 17.1477C62.9693 17.4583 62.4182 17.6136 61.7629 17.6136C61.1909 17.6136 60.6853 17.4867 60.2459 17.233C59.8103 16.9754 59.4693 16.6023 59.2231 16.1136C58.9769 15.6212 58.8538 15.0265 58.8538 14.3295V8.77273H60.9106V14.0114C60.9106 14.5644 61.0621 15.0038 61.3652 15.3295C61.6682 15.6553 62.0659 15.8182 62.5584 15.8182C62.8614 15.8182 63.155 15.7443 63.439 15.5966C63.7231 15.4489 63.9561 15.2292 64.1379 14.9375C64.3235 14.642 64.4163 14.2727 64.4163 13.8295ZM71.8268 17.6534C71.1412 17.6534 70.5276 17.4773 69.9859 17.125C69.4443 16.7727 69.0162 16.2614 68.7018 15.5909C68.3874 14.9205 68.2302 14.1061 68.2302 13.1477C68.2302 12.178 68.3893 11.3598 68.7075 10.6932C69.0295 10.0227 69.4632 9.51705 70.0086 9.17614C70.5541 8.83144 71.1621 8.65909 71.8325 8.65909C72.3439 8.65909 72.7643 8.74621 73.0939 8.92045C73.4234 9.09091 73.6848 9.29735 73.878 9.53977C74.0711 9.77841 74.2208 10.0038 74.3268 10.2159H74.4121V5.86364H76.4746V17.5H74.4518V16.125H74.3268C74.2208 16.3371 74.0674 16.5625 73.8666 16.8011C73.6658 17.036 73.4007 17.2367 73.0711 17.4034C72.7416 17.5701 72.3268 17.6534 71.8268 17.6534ZM72.4007 15.9659C72.8363 15.9659 73.2075 15.8485 73.5143 15.6136C73.8211 15.375 74.0541 15.0436 74.2132 14.6193C74.3723 14.1951 74.4518 13.7008 74.4518 13.1364C74.4518 12.572 74.3723 12.0814 74.2132 11.6648C74.0579 11.2481 73.8268 10.9242 73.52 10.6932C73.217 10.4621 72.8439 10.3466 72.4007 10.3466C71.9424 10.3466 71.5598 10.4659 71.253 10.7045C70.9461 10.9432 70.7151 11.2727 70.5598 11.6932C70.4045 12.1136 70.3268 12.5947 70.3268 13.1364C70.3268 13.6818 70.4045 14.1686 70.5598 14.5966C70.7189 15.0208 70.9518 15.3561 71.2586 15.6023C71.5693 15.8447 71.9499 15.9659 72.4007 15.9659ZM78.7572 17.5V5.86364H83.1209C84.0148 5.86364 84.7648 6.0303 85.3709 6.36364C85.9807 6.69697 86.4409 7.1553 86.7515 7.73864C87.0659 8.31818 87.2231 8.97727 87.2231 9.71591C87.2231 10.4621 87.0659 11.125 86.7515 11.7045C86.4371 12.2841 85.9731 12.7405 85.3595 13.0739C84.7459 13.4034 83.9902 13.5682 83.0925 13.5682H80.2004V11.8352H82.8084C83.3311 11.8352 83.7591 11.7443 84.0925 11.5625C84.4258 11.3807 84.672 11.1307 84.8311 10.8125C84.994 10.4943 85.0754 10.1288 85.0754 9.71591C85.0754 9.30303 84.994 8.93939 84.8311 8.625C84.672 8.31061 84.4239 8.06629 84.0868 7.89205C83.7534 7.71402 83.3235 7.625 82.797 7.625H80.8652V17.5H78.7572ZM88.9632 17.5V8.77273H91.02V17.5H88.9632ZM89.9973 7.53409C89.6715 7.53409 89.3912 7.42614 89.1564 7.21023C88.9215 6.99053 88.8041 6.72727 88.8041 6.42045C88.8041 6.10985 88.9215 5.84659 89.1564 5.63068C89.3912 5.41098 89.6715 5.30114 89.9973 5.30114C90.3268 5.30114 90.6071 5.41098 90.8382 5.63068C91.073 5.84659 91.1905 6.10985 91.1905 6.42045C91.1905 6.72727 91.073 6.99053 90.8382 7.21023C90.6071 7.42614 90.3268 7.53409 89.9973 7.53409ZM95.1919 5.86364V17.5H93.1351V5.86364H95.1919ZM101.114 17.6705C100.261 17.6705 99.5228 17.483 98.8978 17.108C98.2728 16.733 97.788 16.2083 97.4433 15.5341C97.1024 14.8598 96.9319 14.072 96.9319 13.1705C96.9319 12.2689 97.1024 11.4792 97.4433 10.8011C97.788 10.1231 98.2728 9.59659 98.8978 9.22159C99.5228 8.84659 100.261 8.65909 101.114 8.65909C101.966 8.65909 102.705 8.84659 103.33 9.22159C103.955 9.59659 104.438 10.1231 104.779 10.8011C105.123 11.4792 105.296 12.2689 105.296 13.1705C105.296 14.072 105.123 14.8598 104.779 15.5341C104.438 16.2083 103.955 16.733 103.33 17.108C102.705 17.483 101.966 17.6705 101.114 17.6705ZM101.125 16.0227C101.587 16.0227 101.974 15.8958 102.284 15.642C102.595 15.3845 102.826 15.0398 102.977 14.608C103.133 14.1761 103.21 13.6951 103.21 13.1648C103.21 12.6307 103.133 12.1477 102.977 11.7159C102.826 11.2803 102.595 10.9337 102.284 10.6761C101.974 10.4186 101.587 10.2898 101.125 10.2898C100.652 10.2898 100.258 10.4186 99.9433 10.6761C99.6327 10.9337 99.3997 11.2803 99.2444 11.7159C99.0929 12.1477 99.0172 12.6307 99.0172 13.1648C99.0172 13.6951 99.0929 14.1761 99.2444 14.608C99.3997 15.0398 99.6327 15.3845 99.9433 15.642C100.258 15.8958 100.652 16.0227 101.125 16.0227ZM111.399 8.77273V10.3636H106.382V8.77273H111.399ZM107.621 6.68182H109.678V14.875C109.678 15.1515 109.719 15.3636 109.803 15.5114C109.89 15.6553 110.003 15.7538 110.144 15.8068C110.284 15.8598 110.439 15.8864 110.609 15.8864C110.738 15.8864 110.856 15.8769 110.962 15.858C111.072 15.839 111.155 15.822 111.212 15.8068L111.558 17.4148C111.449 17.4527 111.291 17.4943 111.087 17.5398C110.886 17.5852 110.64 17.6117 110.348 17.6193C109.833 17.6345 109.369 17.5568 108.956 17.3864C108.543 17.2121 108.216 16.9432 107.973 16.5795C107.734 16.2159 107.617 15.7614 107.621 15.2159V6.68182Z" fill="white"/>
</svg>
