<svg width="141" height="24" viewBox="0 0 141 24" fill="none" xmlns="http://www.w3.org/2000/svg">
<path d="M16.7102 8.36364V20H14.8352L9.35227 12.0739H9.25568V20H7.14773V8.36364H9.03409L14.5114 16.2955H14.6136V8.36364H16.7102Z" fill="white"/>
<path d="M7 -7.33312e-06L8.26899 5.34752L12 6.99999L7 7.11803L5 13L4.32624 8.65247L0 5.34752H5.34752L7 -7.33312e-06Z" fill="white"/>
<path d="M36.7103 5.86364V17.5H34.8353L29.3523 9.57386H29.2557V17.5H27.1478V5.86364H29.0342L34.5114 13.7955H34.6137V5.86364H36.7103ZM42.7231 17.6705C41.8708 17.6705 41.1322 17.483 40.5072 17.108C39.8822 16.733 39.3973 16.2083 39.0526 15.5341C38.7117 14.8598 38.5413 14.072 38.5413 13.1705C38.5413 12.2689 38.7117 11.4792 39.0526 10.8011C39.3973 10.1231 39.8822 9.59659 40.5072 9.22159C41.1322 8.84659 41.8708 8.65909 42.7231 8.65909C43.5753 8.65909 44.314 8.84659 44.939 9.22159C45.564 9.59659 46.0469 10.1231 46.3878 10.8011C46.7325 11.4792 46.9049 12.2689 46.9049 13.1705C46.9049 14.072 46.7325 14.8598 46.3878 15.5341C46.0469 16.2083 45.564 16.733 44.939 17.108C44.314 17.483 43.5753 17.6705 42.7231 17.6705ZM42.7344 16.0227C43.1966 16.0227 43.5829 15.8958 43.8935 15.642C44.2041 15.3845 44.4352 15.0398 44.5867 14.608C44.742 14.1761 44.8197 13.6951 44.8197 13.1648C44.8197 12.6307 44.742 12.1477 44.5867 11.7159C44.4352 11.2803 44.2041 10.9337 43.8935 10.6761C43.5829 10.4186 43.1966 10.2898 42.7344 10.2898C42.261 10.2898 41.867 10.4186 41.5526 10.6761C41.242 10.9337 41.0091 11.2803 40.8538 11.7159C40.7022 12.1477 40.6265 12.6307 40.6265 13.1648C40.6265 13.6951 40.7022 14.1761 40.8538 14.608C41.0091 15.0398 41.242 15.3845 41.5526 15.642C41.867 15.8958 42.261 16.0227 42.7344 16.0227ZM48.6506 17.5V8.77273H50.6449V10.2273H50.7359C50.8949 9.72348 51.1677 9.33523 51.554 9.0625C51.9442 8.78598 52.3893 8.64773 52.8893 8.64773C53.0029 8.64773 53.1298 8.65341 53.2699 8.66477C53.4139 8.67235 53.5332 8.68561 53.6279 8.70455V10.5966C53.5408 10.5663 53.4025 10.5398 53.2131 10.517C53.0275 10.4905 52.8476 10.4773 52.6734 10.4773C52.2984 10.4773 51.9612 10.5587 51.662 10.7216C51.3665 10.8807 51.1336 11.1023 50.9631 11.3864C50.7927 11.6705 50.7074 11.9981 50.7074 12.3693V17.5H48.6506ZM59.8211 8.77273V10.3636H54.804V8.77273H59.8211ZM56.0427 6.68182H58.0995V14.875C58.0995 15.1515 58.1412 15.3636 58.2245 15.5114C58.3116 15.6553 58.4253 15.7538 58.5654 15.8068C58.7056 15.8598 58.8609 15.8864 59.0313 15.8864C59.1601 15.8864 59.2775 15.8769 59.3836 15.858C59.4934 15.839 59.5768 15.822 59.6336 15.8068L59.9802 17.4148C59.8703 17.4527 59.7131 17.4943 59.5086 17.5398C59.3078 17.5852 59.0616 17.6117 58.7699 17.6193C58.2548 17.6345 57.7908 17.5568 57.3779 17.3864C56.965 17.2121 56.6374 16.9432 56.3949 16.5795C56.1563 16.2159 56.0389 15.7614 56.0427 15.2159V6.68182ZM63.7856 12.3864V17.5H61.7288V5.86364H63.7401V10.2557H63.8424C64.0469 9.76326 64.3632 9.375 64.7913 9.09091C65.2231 8.80303 65.7723 8.65909 66.439 8.65909C67.045 8.65909 67.5735 8.78598 68.0242 9.03977C68.475 9.29356 68.8235 9.66477 69.0697 10.1534C69.3197 10.642 69.4447 11.2386 69.4447 11.9432V17.5H67.3878V12.2614C67.3878 11.6742 67.2363 11.2178 66.9333 10.892C66.6341 10.5625 66.2136 10.3977 65.6719 10.3977C65.3083 10.3977 64.9825 10.4773 64.6947 10.6364C64.4106 10.7917 64.1871 11.017 64.0242 11.3125C63.8651 11.608 63.7856 11.9659 63.7856 12.3864ZM78.439 11.0795L76.564 11.2841C76.511 11.0947 76.4181 10.9167 76.2856 10.75C76.1568 10.5833 75.9825 10.4489 75.7628 10.3466C75.5431 10.2443 75.2742 10.1932 74.956 10.1932C74.528 10.1932 74.1681 10.286 73.8765 10.4716C73.5886 10.6572 73.4466 10.8977 73.4503 11.1932C73.4466 11.447 73.5394 11.6534 73.7288 11.8125C73.9219 11.9716 74.2401 12.1023 74.6833 12.2045L76.1719 12.5227C76.9977 12.7008 77.6113 12.983 78.0128 13.3693C78.4181 13.7557 78.6227 14.2614 78.6265 14.8864C78.6227 15.4356 78.4617 15.9205 78.1435 16.3409C77.8291 16.7576 77.3916 17.0833 76.831 17.3182C76.2704 17.553 75.6265 17.6705 74.8992 17.6705C73.831 17.6705 72.9712 17.447 72.3197 17C71.6681 16.5492 71.2799 15.9223 71.1549 15.1193L73.1606 14.9261C73.2515 15.3201 73.4447 15.6174 73.7401 15.8182C74.0356 16.0189 74.42 16.1193 74.8935 16.1193C75.3822 16.1193 75.7742 16.0189 76.0697 15.8182C76.3689 15.6174 76.5185 15.3693 76.5185 15.0739C76.5185 14.8239 76.4219 14.6174 76.2288 14.4545C76.0394 14.2917 75.7439 14.1667 75.3424 14.0795L73.8538 13.767C73.0166 13.5928 72.3973 13.2992 71.9958 12.8864C71.5943 12.4697 71.3954 11.9432 71.3992 11.3068C71.3954 10.7689 71.5413 10.303 71.8367 9.90909C72.136 9.51136 72.5507 9.20455 73.081 8.98864C73.6151 8.76894 74.2306 8.65909 74.9276 8.65909C75.9503 8.65909 76.7553 8.87689 77.3424 9.3125C77.9333 9.74811 78.2988 10.3371 78.439 11.0795ZM84.6805 8.77273V10.3636H79.6634V8.77273H84.6805ZM80.902 6.68182H82.9589V14.875C82.9589 15.1515 83.0005 15.3636 83.0839 15.5114C83.171 15.6553 83.2846 15.7538 83.4248 15.8068C83.5649 15.8598 83.7202 15.8864 83.8907 15.8864C84.0195 15.8864 84.1369 15.8769 84.243 15.858C84.3528 15.839 84.4361 15.822 84.493 15.8068L84.8396 17.4148C84.7297 17.4527 84.5725 17.4943 84.368 17.5398C84.1672 17.5852 83.921 17.6117 83.6293 17.6193C83.1142 17.6345 82.6502 17.5568 82.2373 17.3864C81.8244 17.2121 81.4967 16.9432 81.2543 16.5795C81.0157 16.2159 80.8983 15.7614 80.902 15.2159V6.68182ZM88.912 17.6761C88.359 17.6761 87.8609 17.5777 87.4177 17.3807C86.9783 17.1799 86.6298 16.8845 86.3722 16.4943C86.1184 16.1042 85.9915 15.6231 85.9915 15.0511C85.9915 14.5587 86.0824 14.1515 86.2643 13.8295C86.4461 13.5076 86.6942 13.25 87.0086 13.0568C87.323 12.8636 87.6771 12.7178 88.0711 12.6193C88.4688 12.517 88.8798 12.4432 89.304 12.3977C89.8154 12.3447 90.2302 12.2973 90.5484 12.2557C90.8665 12.2102 91.0976 12.142 91.2415 12.0511C91.3893 11.9564 91.4631 11.8106 91.4631 11.6136V11.5795C91.4631 11.1515 91.3362 10.8201 91.0824 10.5852C90.8287 10.3504 90.4631 10.233 89.9859 10.233C89.4821 10.233 89.0824 10.3428 88.787 10.5625C88.4953 10.7822 88.2984 11.0417 88.1961 11.3409L86.2756 11.0682C86.4271 10.5379 86.6771 10.0947 87.0256 9.73864C87.3741 9.37879 87.8003 9.10985 88.304 8.93182C88.8078 8.75 89.3646 8.65909 89.9745 8.65909C90.3949 8.65909 90.8135 8.70833 91.2302 8.80682C91.6468 8.9053 92.0275 9.06818 92.3722 9.29545C92.7169 9.51894 92.9934 9.82386 93.2018 10.2102C93.4139 10.5966 93.5199 11.0795 93.5199 11.6591V17.5H91.5427V16.3011H91.4745C91.3495 16.5436 91.1734 16.7708 90.9461 16.983C90.7226 17.1913 90.4404 17.3598 90.0995 17.4886C89.7624 17.6136 89.3665 17.6761 88.912 17.6761ZM89.4461 16.1648C89.859 16.1648 90.2169 16.0833 90.5199 15.9205C90.823 15.7538 91.0559 15.5341 91.2188 15.2614C91.3855 14.9886 91.4688 14.6913 91.4688 14.3693V13.3409C91.4044 13.3939 91.2946 13.4432 91.1393 13.4886C90.9878 13.5341 90.8173 13.5739 90.6279 13.608C90.4385 13.642 90.251 13.6723 90.0654 13.6989C89.8798 13.7254 89.7188 13.7481 89.5824 13.767C89.2756 13.8087 89.001 13.8769 88.7586 13.9716C88.5162 14.0663 88.3249 14.1989 88.1847 14.3693C88.0446 14.536 87.9745 14.7519 87.9745 15.017C87.9745 15.3958 88.1128 15.6818 88.3893 15.875C88.6658 16.0682 89.0181 16.1648 89.4461 16.1648ZM95.5881 17.5V8.77273H97.5824V10.2273H97.6734C97.8324 9.72348 98.1052 9.33523 98.4915 9.0625C98.8817 8.78598 99.3268 8.64773 99.8268 8.64773C99.9404 8.64773 100.067 8.65341 100.207 8.66477C100.351 8.67235 100.471 8.68561 100.565 8.70455V10.5966C100.478 10.5663 100.34 10.5398 100.151 10.517C99.965 10.4905 99.7851 10.4773 99.6109 10.4773C99.2359 10.4773 98.8987 10.5587 98.5995 10.7216C98.304 10.8807 98.0711 11.1023 97.9006 11.3864C97.7302 11.6705 97.6449 11.9981 97.6449 12.3693V17.5H95.5881ZM109.935 17.5H105.992V5.86364H110.014C111.17 5.86364 112.162 6.09659 112.992 6.5625C113.825 7.02462 114.465 7.68939 114.912 8.55682C115.359 9.42424 115.582 10.4621 115.582 11.6705C115.582 12.8826 115.357 13.9242 114.906 14.7955C114.459 15.6667 113.814 16.3352 112.969 16.8011C112.128 17.267 111.117 17.5 109.935 17.5ZM108.099 15.6761H109.832C110.643 15.6761 111.319 15.5284 111.861 15.233C112.403 14.9337 112.81 14.4886 113.082 13.8977C113.355 13.303 113.492 12.5606 113.492 11.6705C113.492 10.7803 113.355 10.0417 113.082 9.45455C112.81 8.86364 112.406 8.42235 111.872 8.13068C111.342 7.83523 110.683 7.6875 109.895 7.6875H108.099V15.6761ZM120.006 17.6761C119.453 17.6761 118.955 17.5777 118.511 17.3807C118.072 17.1799 117.724 16.8845 117.466 16.4943C117.212 16.1042 117.085 15.6231 117.085 15.0511C117.085 14.5587 117.176 14.1515 117.358 13.8295C117.54 13.5076 117.788 13.25 118.102 13.0568C118.417 12.8636 118.771 12.7178 119.165 12.6193C119.563 12.517 119.974 12.4432 120.398 12.3977C120.909 12.3447 121.324 12.2973 121.642 12.2557C121.96 12.2102 122.191 12.142 122.335 12.0511C122.483 11.9564 122.557 11.8106 122.557 11.6136V11.5795C122.557 11.1515 122.43 10.8201 122.176 10.5852C121.922 10.3504 121.557 10.233 121.08 10.233C120.576 10.233 120.176 10.3428 119.881 10.5625C119.589 10.7822 119.392 11.0417 119.29 11.3409L117.369 11.0682C117.521 10.5379 117.771 10.0947 118.119 9.73864C118.468 9.37879 118.894 9.10985 119.398 8.93182C119.902 8.75 120.458 8.65909 121.068 8.65909C121.489 8.65909 121.907 8.70833 122.324 8.80682C122.741 8.9053 123.121 9.06818 123.466 9.29545C123.811 9.51894 124.087 9.82386 124.296 10.2102C124.508 10.5966 124.614 11.0795 124.614 11.6591V17.5H122.636V16.3011H122.568C122.443 16.5436 122.267 16.7708 122.04 16.983C121.816 17.1913 121.534 17.3598 121.193 17.4886C120.856 17.6136 120.46 17.6761 120.006 17.6761ZM120.54 16.1648C120.953 16.1648 121.311 16.0833 121.614 15.9205C121.917 15.7538 122.15 15.5341 122.313 15.2614C122.479 14.9886 122.563 14.6913 122.563 14.3693V13.3409C122.498 13.3939 122.388 13.4432 122.233 13.4886C122.082 13.5341 121.911 13.5739 121.722 13.608C121.532 13.642 121.345 13.6723 121.159 13.6989C120.974 13.7254 120.813 13.7481 120.676 13.767C120.369 13.8087 120.095 13.8769 119.852 13.9716C119.61 14.0663 119.419 14.1989 119.278 14.3693C119.138 14.536 119.068 14.7519 119.068 15.017C119.068 15.3958 119.207 15.6818 119.483 15.875C119.76 16.0682 120.112 16.1648 120.54 16.1648ZM131.04 8.77273V10.3636H126.023V8.77273H131.04ZM127.261 6.68182H129.318V14.875C129.318 15.1515 129.36 15.3636 129.443 15.5114C129.53 15.6553 129.644 15.7538 129.784 15.8068C129.924 15.8598 130.08 15.8864 130.25 15.8864C130.379 15.8864 130.496 15.8769 130.602 15.858C130.712 15.839 130.796 15.822 130.852 15.8068L131.199 17.4148C131.089 17.4527 130.932 17.4943 130.727 17.5398C130.527 17.5852 130.28 17.6117 129.989 17.6193C129.474 17.6345 129.01 17.5568 128.597 17.3864C128.184 17.2121 127.856 16.9432 127.614 16.5795C127.375 16.2159 127.258 15.7614 127.261 15.2159V6.68182ZM135.271 17.6761C134.718 17.6761 134.22 17.5777 133.777 17.3807C133.338 17.1799 132.989 16.8845 132.732 16.4943C132.478 16.1042 132.351 15.6231 132.351 15.0511C132.351 14.5587 132.442 14.1515 132.624 13.8295C132.805 13.5076 133.054 13.25 133.368 13.0568C133.682 12.8636 134.037 12.7178 134.43 12.6193C134.828 12.517 135.239 12.4432 135.663 12.3977C136.175 12.3447 136.59 12.2973 136.908 12.2557C137.226 12.2102 137.457 12.142 137.601 12.0511C137.749 11.9564 137.823 11.8106 137.823 11.6136V11.5795C137.823 11.1515 137.696 10.8201 137.442 10.5852C137.188 10.3504 136.823 10.233 136.345 10.233C135.841 10.233 135.442 10.3428 135.146 10.5625C134.855 10.7822 134.658 11.0417 134.555 11.3409L132.635 11.0682C132.787 10.5379 133.037 10.0947 133.385 9.73864C133.733 9.37879 134.16 9.10985 134.663 8.93182C135.167 8.75 135.724 8.65909 136.334 8.65909C136.754 8.65909 137.173 8.70833 137.59 8.80682C138.006 8.9053 138.387 9.06818 138.732 9.29545C139.076 9.51894 139.353 9.82386 139.561 10.2102C139.773 10.5966 139.879 11.0795 139.879 11.6591V17.5H137.902V16.3011H137.834C137.709 16.5436 137.533 16.7708 137.305 16.983C137.082 17.1913 136.8 17.3598 136.459 17.4886C136.122 17.6136 135.726 17.6761 135.271 17.6761ZM135.805 16.1648C136.218 16.1648 136.576 16.0833 136.879 15.9205C137.182 15.7538 137.415 15.5341 137.578 15.2614C137.745 14.9886 137.828 14.6913 137.828 14.3693V13.3409C137.764 13.3939 137.654 13.4432 137.499 13.4886C137.347 13.5341 137.177 13.5739 136.987 13.608C136.798 13.642 136.61 13.6723 136.425 13.6989C136.239 13.7254 136.078 13.7481 135.942 13.767C135.635 13.8087 135.36 13.8769 135.118 13.9716C134.876 14.0663 134.684 14.1989 134.544 14.3693C134.404 14.536 134.334 14.7519 134.334 15.017C134.334 15.3958 134.472 15.6818 134.749 15.875C135.025 16.0682 135.377 16.1648 135.805 16.1648Z" fill="white"/>
</svg>
