<svg width="135" height="24" viewBox="0 0 135 24" fill="none" xmlns="http://www.w3.org/2000/svg">
<path d="M0.00012207 6.8421H39.2001V9.59299L38.1685 8.04562L19.6001 7.70175L1.20363 8.04562L0.00012207 9.59299V6.8421Z" fill="white"/>
<rect x="1.63342" y="10.1088" width="35.4175" height="1.37544" fill="white"/>
<rect x="0.687988" y="14.7509" width="38.5122" height="2.40703" fill="white"/>
<path d="M57.6718 9.0625C57.6188 8.56629 57.3953 8.17992 57.0013 7.90341C56.6112 7.62689 56.1036 7.48864 55.4786 7.48864C55.0392 7.48864 54.6623 7.55492 54.3479 7.6875C54.0335 7.82008 53.793 8 53.6263 8.22727C53.4597 8.45455 53.3744 8.71402 53.3707 9.00568C53.3707 9.24811 53.4256 9.45833 53.5354 9.63636C53.6491 9.81439 53.8025 9.96591 53.9957 10.0909C54.1888 10.2121 54.4028 10.3144 54.6377 10.3977C54.8725 10.4811 55.1093 10.5511 55.3479 10.608L56.4388 10.8807C56.8782 10.983 57.3006 11.1212 57.7059 11.2955C58.115 11.4697 58.4805 11.6894 58.8025 11.9545C59.1282 12.2197 59.3858 12.5398 59.5752 12.9148C59.7646 13.2898 59.8593 13.7292 59.8593 14.233C59.8593 14.9148 59.685 15.5152 59.3366 16.0341C58.9881 16.5492 58.4843 16.9527 57.8252 17.2443C57.1699 17.5322 56.3763 17.6761 55.4445 17.6761C54.5392 17.6761 53.7532 17.536 53.0866 17.2557C52.4237 16.9754 51.9047 16.5663 51.5297 16.0284C51.1585 15.4905 50.9578 14.8352 50.9275 14.0625H53.0013C53.0316 14.4678 53.1566 14.8049 53.3763 15.0739C53.596 15.3428 53.882 15.5436 54.2343 15.6761C54.5903 15.8087 54.9881 15.875 55.4275 15.875C55.8858 15.875 56.2873 15.8068 56.632 15.6705C56.9805 15.5303 57.2532 15.3371 57.4502 15.0909C57.6472 14.8409 57.7475 14.5492 57.7513 14.2159C57.7475 13.9129 57.6585 13.6629 57.4843 13.4659C57.31 13.2652 57.0657 13.0985 56.7513 12.9659C56.4407 12.8295 56.0771 12.7083 55.6604 12.6023L54.3366 12.2614C53.3782 12.0152 52.6206 11.642 52.0638 11.142C51.5108 10.6383 51.2343 9.9697 51.2343 9.13636C51.2343 8.45076 51.4199 7.85038 51.7911 7.33523C52.1661 6.82008 52.6756 6.42045 53.3195 6.13636C53.9635 5.84848 54.6926 5.70455 55.507 5.70455C56.3328 5.70455 57.0563 5.84848 57.6775 6.13636C58.3025 6.42045 58.793 6.81629 59.1491 7.32386C59.5051 7.82765 59.6888 8.4072 59.7002 9.0625H57.6718ZM66.0056 8.77273V10.3636H60.9885V8.77273H66.0056ZM62.2272 6.68182H64.284V14.875C64.284 15.1515 64.3257 15.3636 64.409 15.5114C64.4961 15.6553 64.6098 15.7538 64.7499 15.8068C64.8901 15.8598 65.0454 15.8864 65.2158 15.8864C65.3446 15.8864 65.462 15.8769 65.5681 15.858C65.6779 15.839 65.7613 15.822 65.8181 15.8068L66.1647 17.4148C66.0548 17.4527 65.8976 17.4943 65.6931 17.5398C65.4923 17.5852 65.2461 17.6117 64.9545 17.6193C64.4393 17.6345 63.9753 17.5568 63.5624 17.3864C63.1495 17.2121 62.8219 16.9432 62.5795 16.5795C62.3408 16.2159 62.2234 15.7614 62.2272 15.2159V6.68182ZM70.2371 17.6761C69.6841 17.6761 69.186 17.5777 68.7428 17.3807C68.3034 17.1799 67.9549 16.8845 67.6974 16.4943C67.4436 16.1042 67.3167 15.6231 67.3167 15.0511C67.3167 14.5587 67.4076 14.1515 67.5894 13.8295C67.7712 13.5076 68.0193 13.25 68.3337 13.0568C68.6481 12.8636 69.0023 12.7178 69.3962 12.6193C69.7939 12.517 70.2049 12.4432 70.6292 12.3977C71.1405 12.3447 71.5553 12.2973 71.8735 12.2557C72.1917 12.2102 72.4227 12.142 72.5667 12.0511C72.7144 11.9564 72.7883 11.8106 72.7883 11.6136V11.5795C72.7883 11.1515 72.6614 10.8201 72.4076 10.5852C72.1538 10.3504 71.7883 10.233 71.311 10.233C70.8072 10.233 70.4076 10.3428 70.1121 10.5625C69.8205 10.7822 69.6235 11.0417 69.5212 11.3409L67.6008 11.0682C67.7523 10.5379 68.0023 10.0947 68.3508 9.73864C68.6992 9.37879 69.1254 9.10985 69.6292 8.93182C70.133 8.75 70.6898 8.65909 71.2996 8.65909C71.7201 8.65909 72.1386 8.70833 72.5553 8.80682C72.972 8.9053 73.3527 9.06818 73.6974 9.29545C74.0421 9.51894 74.3186 9.82386 74.5269 10.2102C74.739 10.5966 74.8451 11.0795 74.8451 11.6591V17.5H72.8678V16.3011H72.7996C72.6746 16.5436 72.4985 16.7708 72.2712 16.983C72.0477 17.1913 71.7655 17.3598 71.4246 17.4886C71.0875 17.6136 70.6917 17.6761 70.2371 17.6761ZM70.7712 16.1648C71.1841 16.1648 71.5421 16.0833 71.8451 15.9205C72.1481 15.7538 72.3811 15.5341 72.5439 15.2614C72.7106 14.9886 72.7939 14.6913 72.7939 14.3693V13.3409C72.7296 13.3939 72.6197 13.4432 72.4644 13.4886C72.3129 13.5341 72.1424 13.5739 71.953 13.608C71.7636 13.642 71.5761 13.6723 71.3905 13.6989C71.2049 13.7254 71.0439 13.7481 70.9076 13.767C70.6008 13.8087 70.3261 13.8769 70.0837 13.9716C69.8413 14.0663 69.65 14.1989 69.5099 14.3693C69.3697 14.536 69.2996 14.7519 69.2996 15.017C69.2996 15.3958 69.4379 15.6818 69.7144 15.875C69.9909 16.0682 70.3432 16.1648 70.7712 16.1648ZM80.7201 17.6705C79.8489 17.6705 79.1008 17.4792 78.4758 17.0966C77.8546 16.714 77.3754 16.1856 77.0383 15.5114C76.7049 14.8333 76.5383 14.053 76.5383 13.1705C76.5383 12.2841 76.7087 11.5019 77.0496 10.8239C77.3905 10.142 77.8716 9.61174 78.4928 9.23295C79.1178 8.85038 79.8564 8.65909 80.7087 8.65909C81.4171 8.65909 82.0439 8.78977 82.5894 9.05114C83.1386 9.30871 83.5761 9.67424 83.9019 10.1477C84.2277 10.6174 84.4133 11.1667 84.4587 11.7955H82.4928C82.4133 11.375 82.2239 11.0246 81.9246 10.7443C81.6292 10.4602 81.2333 10.3182 80.7371 10.3182C80.3167 10.3182 79.9474 10.4318 79.6292 10.6591C79.311 10.8826 79.0629 11.2045 78.8849 11.625C78.7106 12.0455 78.6235 12.5492 78.6235 13.1364C78.6235 13.7311 78.7106 14.2424 78.8849 14.6705C79.0591 15.0947 79.3034 15.4223 79.6178 15.6534C79.936 15.8807 80.3091 15.9943 80.7371 15.9943C81.0402 15.9943 81.311 15.9375 81.5496 15.8239C81.7921 15.7064 81.9947 15.5379 82.1576 15.3182C82.3205 15.0985 82.4322 14.8314 82.4928 14.517H84.4587C84.4095 15.1345 84.2277 15.6818 83.9133 16.1591C83.5989 16.6326 83.1708 17.0038 82.6292 17.2727C82.0875 17.5379 81.4511 17.6705 80.7201 17.6705ZM88.0226 14.7614L88.017 12.2784H88.3465L91.4829 8.77273H93.8863L90.0283 13.0682H89.6022L88.0226 14.7614ZM86.1476 17.5V5.86364H88.2045V17.5H86.1476ZM91.6249 17.5L88.784 13.5284L90.1704 12.0795L94.0851 17.5H91.6249ZM97.0582 17.5L94.5922 8.77273H96.6888L98.2229 14.9091H98.3025L99.8706 8.77273H101.945L103.513 14.875H103.598L105.109 8.77273H107.212L104.74 17.5H102.598L100.962 11.6023H100.842L99.2059 17.5H97.0582ZM111.159 17.6761C110.606 17.6761 110.108 17.5777 109.665 17.3807C109.225 17.1799 108.877 16.8845 108.619 16.4943C108.365 16.1042 108.239 15.6231 108.239 15.0511C108.239 14.5587 108.329 14.1515 108.511 13.8295C108.693 13.5076 108.941 13.25 109.256 13.0568C109.57 12.8636 109.924 12.7178 110.318 12.6193C110.716 12.517 111.127 12.4432 111.551 12.3977C112.062 12.3447 112.477 12.2973 112.795 12.2557C113.114 12.2102 113.345 12.142 113.489 12.0511C113.636 11.9564 113.71 11.8106 113.71 11.6136V11.5795C113.71 11.1515 113.583 10.8201 113.329 10.5852C113.076 10.3504 112.71 10.233 112.233 10.233C111.729 10.233 111.329 10.3428 111.034 10.5625C110.742 10.7822 110.545 11.0417 110.443 11.3409L108.523 11.0682C108.674 10.5379 108.924 10.0947 109.273 9.73864C109.621 9.37879 110.047 9.10985 110.551 8.93182C111.055 8.75 111.612 8.65909 112.222 8.65909C112.642 8.65909 113.061 8.70833 113.477 8.80682C113.894 8.9053 114.275 9.06818 114.619 9.29545C114.964 9.51894 115.24 9.82386 115.449 10.2102C115.661 10.5966 115.767 11.0795 115.767 11.6591V17.5H113.79V16.3011H113.722C113.597 16.5436 113.42 16.7708 113.193 16.983C112.97 17.1913 112.687 17.3598 112.347 17.4886C112.009 17.6136 111.614 17.6761 111.159 17.6761ZM111.693 16.1648C112.106 16.1648 112.464 16.0833 112.767 15.9205C113.07 15.7538 113.303 15.5341 113.466 15.2614C113.632 14.9886 113.716 14.6913 113.716 14.3693V13.3409C113.651 13.3939 113.542 13.4432 113.386 13.4886C113.235 13.5341 113.064 13.5739 112.875 13.608C112.686 13.642 112.498 13.6723 112.312 13.6989C112.127 13.7254 111.966 13.7481 111.829 13.767C111.523 13.8087 111.248 13.8769 111.006 13.9716C110.763 14.0663 110.572 14.1989 110.432 14.3693C110.292 14.536 110.222 14.7519 110.222 15.017C110.222 15.3958 110.36 15.6818 110.636 15.875C110.913 16.0682 111.265 16.1648 111.693 16.1648ZM125.318 8.77273L122.21 17.5H119.937L116.829 8.77273H119.023L121.028 15.2557H121.119L123.131 8.77273H125.318ZM130.308 17.6705C129.433 17.6705 128.677 17.4886 128.041 17.125C127.409 16.7576 126.922 16.2386 126.581 15.5682C126.24 14.8939 126.07 14.1004 126.07 13.1875C126.07 12.2898 126.24 11.5019 126.581 10.8239C126.926 10.142 127.407 9.61174 128.024 9.23295C128.641 8.85038 129.367 8.65909 130.2 8.65909C130.738 8.65909 131.246 8.74621 131.723 8.92045C132.204 9.09091 132.628 9.35606 132.996 9.71591C133.367 10.0758 133.659 10.5341 133.871 11.0909C134.083 11.6439 134.189 12.303 134.189 13.0682V13.6989H127.035V12.3125H132.217C132.213 11.9186 132.128 11.5682 131.962 11.2614C131.795 10.9508 131.562 10.7064 131.263 10.5284C130.967 10.3504 130.623 10.2614 130.229 10.2614C129.808 10.2614 129.439 10.3636 129.121 10.5682C128.802 10.7689 128.554 11.0341 128.376 11.3636C128.202 11.6894 128.113 12.0473 128.109 12.4375V13.6477C128.109 14.1553 128.202 14.5909 128.388 14.9545C128.573 15.3144 128.833 15.5909 129.166 15.7841C129.499 15.9735 129.89 16.0682 130.337 16.0682C130.636 16.0682 130.907 16.0265 131.149 15.9432C131.391 15.8561 131.602 15.7292 131.78 15.5625C131.958 15.3958 132.092 15.1894 132.183 14.9432L134.104 15.1591C133.982 15.6667 133.751 16.1098 133.41 16.4886C133.073 16.8636 132.641 17.1553 132.115 17.3636C131.588 17.5682 130.986 17.6705 130.308 17.6705Z" fill="white"/>
</svg>
