<svg width="35" height="31" viewBox="0 0 35 31" fill="none" xmlns="http://www.w3.org/2000/svg">
<path d="M13.728 30.8L5.5 13.772L5.28 13.86L5.544 19.052V30.8H5.06639e-07V0H4.444L12.54 17.688L12.76 17.6L12.276 12.188V0H17.82V30.8H13.728ZM24.023 8.316H33.747V12.936H26.883L31.063 19.14C32.9403 21.8093 33.9816 23.6427 34.187 24.64C34.3043 25.1093 34.363 25.5933 34.363 26.092C34.363 28.1747 33.5856 29.744 32.031 30.8H20.811V26.18H28.863L24.155 19.272C23.9496 18.9493 23.627 18.4947 23.187 17.908C22.7763 17.3213 22.4536 16.852 22.219 16.5C21.9843 16.1187 21.823 15.84 21.735 15.664C21.647 15.488 21.5296 15.268 21.383 15.004C21.2363 14.7107 21.1336 14.4613 21.075 14.256C20.9576 13.6987 20.899 13.244 20.899 12.892C20.899 10.7507 21.9403 9.22533 24.023 8.316Z" fill="white" fill-opacity="0.9"/>
</svg>
